#!OML:ASF I:\Actors\actors\Patient Classification 2\Patient 1\Session 1\actor1.ASF
:FULLY-SPECIFIED
:DEGREES
220
root -0.775313 18.6357 4.18513 -0.12492 -2.00715 -3.6469
lowerback 20.9019 1.12716 -0.755006
upperback 4.91606 1.35376 0.703238
thorax -6.36499 0.664187 0.838501
lowerneck -1.24537 -2.64196 2.3425
upperneck 0.603351 -3.57773 1.80181
head 0.375917 -1.77322 0.140516
rclavicle -9.93923e-016 1.98785e-015
rhumerus 16.1196 13.7806 -35.1648
rradius 135.852
rwrist -28.697
rhand -10.9228 -43.3793
rfingers 7.12502
rthumb 15.0949 -72.8089
lclavicle -9.93923e-016 1.98785e-015
lhumerus -42.3129 -6.50647 84.2782
lradius 59.7242
lwrist 6.77887
lhand -12.8613 -28.6866
lfingers 7.12502
lthumb 13.2269 0.873815
rfemur 0 0 0
rtibia 0
rfoot 0 0
rtoes 0
lfemur -12.1272 -0.339299 -9.52122
ltibia 27.9574
lfoot -18.3811 8.94273
ltoes -56.5375
221
root -0.774924 18.633 4.18271 -0.0767466 -2.12043 -3.68248
lowerback 20.9958 1.14974 -0.656532
upperback 4.80057 1.40236 0.684719
thorax -6.53785 0.686891 0.747346
lowerneck -1.28872 -2.65081 2.34935
upperneck 0.419116 -3.58636 1.71149
head 0.325127 -1.78067 0.113354
rclavicle -3.97569e-015 4.77083e-015
rhumerus 16.2386 13.5808 -35.0781
rradius 135.872
rwrist -28.7993
rhand -10.9692 -43.3123
rfingers 7.12502
rthumb 15.0502 -72.7453
lclavicle -3.97569e-015 4.77083e-015
lhumerus -42.3691 -6.46957 84.2781
lradius 59.6484
lwrist 6.69942
lhand -12.766 -28.8008
lfingers 7.12502
lthumb 13.3188 0.753542
rfemur 0 0 0
rtibia 0
rfoot 0 0
rtoes 0
lfemur -12.216 -0.373778 -9.49048
ltibia 28.0477
lfoot -18.4847 9.04287
ltoes -56.4006
222
root -0.759908 18.6305 4.17338 0.105604 -2.46708 -3.71128
lowerback 21.0099 1.21077 -0.394174
upperback 4.64894 1.53086 0.595294
thorax -6.70317 0.744807 0.465969
lowerneck -1.29497 -2.65684 2.40138
upperneck 0.194894 -3.5905 1.67396
head 0.256494 -1.78629 0.0958637
rclavicle -1.3418e-014 1.82882e-014
rhumerus 16.289 13.4029 -35.0496
rradius 135.854
rwrist -28.7146
rhand -11.1042 -43.2029
rfingers 7.12502
rthumb 14.9201 -72.6455
lclavicle -1.3418e-014 1.82882e-014
lhumerus -42.3942 -6.45486 84.278
lradius 59.5871
lwrist 6.64199
lhand -12.7611 -28.694
lfingers 7.12502
lthumb 13.3234 0.860034
rfemur 0 0 0
rtibia 0
rfoot 0 0
rtoes 0
lfemur -12.4348 -0.379333 -9.53533
ltibia 28.1465
lfoot -18.6189 9.35109
ltoes -56.2781
223
root -0.766862 18.6306 4.17745 0.166424 -2.46075 -3.77575
lowerback 20.9454 1.22001 -0.338597
upperback 4.59221 1.55621 0.604076
thorax -6.73006 0.756468 0.437607
lowerneck -1.32072 -2.6508 2.48485
upperneck -0.0801911 -3.5788 1.65064
head 0.175626 -1.78465 0.0779709
rclavicle -9.64106e-015 -6.36111e-015
rhumerus 16.3512 13.1181 -35.0182
rradius 135.832
rwrist -28.6952
rhand -11.015 -43.2911
rfingers 7.12502
rthumb 15.0061 -72.7273
lclavicle -9.64106e-015 -6.36111e-015
lhumerus -42.4071 -6.5253 84.3049
lradius 59.591
lwrist 6.68393
lhand -12.7857 -28.5515
lfingers 7.12502
lthumb 13.2997 1.00415
rfemur 0 0 0
rtibia 0
rfoot 0 0
rtoes 0
lfemur -12.507 -0.410372 -9.44113
ltibia 28.1885
lfoot -18.6174 9.35843
ltoes -56.3143
224
root -0.773685 18.631 4.1818 0.238875 -2.44594 -3.8623
lowerback 20.8315 1.22544 -0.27335
upperback 4.54215 1.58036 0.633527
thorax -6.72397 0.767562 0.427326
lowerneck -1.37445 -2.65611 2.53097
upperneck -0.320993 -3.58339 1.60516
head 0.110038 -1.79061 0.0585992
rclavicle -1.5704e-014 1.59028e-014
rhumerus 16.4512 12.7896 -34.9191
rradius 135.812
rwrist -28.8178
rhand -10.8514 -43.4075
rfingers 7.12502
rthumb 15.1636 -72.8319
lclavicle -1.5704e-014 1.59028e-014
lhumerus -42.4377 -6.63159 84.3554
lradius 59.6401
lwrist 6.81173
lhand -12.7918 -28.5025
lfingers 7.12502
lthumb 13.2939 1.05351
rfemur 0 0 0
rtibia 0
rfoot 0 0
rtoes 0
lfemur -12.5859 -0.501673 -9.32062
ltibia 28.2275
lfoot -18.6577 9.40801
ltoes -56.2948
